<svg xmlns="http://www.w3.org/2000/svg" width="157" height="157" viewBox="0 0 157 157" fill="none">
<g clip-path="url(#clip0_393_818)">
<path fill-rule="evenodd" clip-rule="evenodd" d="M151.407 35.0527C128.477 92.4136 68.2225 108.504 10.9699 101.726C9.98631 101.611 9.09083 102.315 8.97626 103.298C8.86168 104.282 9.56491 105.177 10.5485 105.292C69.4042 112.263 131.17 95.3511 154.741 36.3828C155.11 35.4649 154.661 34.4208 153.739 34.0507C152.821 33.6816 151.777 34.1304 151.407 35.0527Z" fill="#FABD05"/>
<path fill-rule="evenodd" clip-rule="evenodd" d="M11.8336 103.637C14.7437 102.419 18.4129 100.932 18.8243 100.751C29.9746 95.8474 39.7666 89.4769 48.9666 81.455C49.7141 80.8048 49.7908 79.6677 49.1407 78.9202C48.4905 78.1727 47.3535 78.096 46.606 78.7461C37.6872 86.528 28.1923 92.7088 17.3757 97.464C16.7455 97.7416 8.49528 101.08 6.87777 101.881C6.21279 102.206 5.93759 102.597 5.88141 102.695C5.56331 103.206 5.56889 103.668 5.64267 104.022C5.72898 104.42 6.03165 105.042 6.79663 105.505C7.59915 105.986 9.49952 106.572 9.96729 106.759C17.0172 109.594 25.1325 112.145 32.1464 116.025C38.8355 119.724 44.5297 124.639 47.0855 132.366C47.3958 133.307 48.415 133.817 49.356 133.507C50.297 133.196 50.8069 132.177 50.4966 131.236C47.6375 122.598 41.3618 117.017 33.8871 112.882C26.9141 109.026 18.8864 106.441 11.8336 103.637Z" fill="#FABD05"/>
</g>
<defs>
<clipPath id="clip0_393_818">
<rect width="130" height="130" fill="white" transform="translate(30.3193 0.0223999) rotate(13.4769)"/>
</clipPath>
</defs>
</svg>