<svg width="414" height="402" viewBox="0 0 414 402" fill="none" xmlns="http://www.w3.org/2000/svg">
<path fill-rule="evenodd" clip-rule="evenodd" d="M261.054 56.5946C261.054 25.3383 235.716 0 204.459 0H56.5946C25.3383 0 0 25.3383 0 56.5946V120V245V345.405C0 376.662 25.3383 402 56.5947 402H356.257C387.514 402 412.852 376.662 412.852 345.405V176.595C412.852 145.338 387.514 120 356.257 120H317.649C286.392 120 261.054 94.6617 261.054 63.4054V56.5946Z" fill="#FFF5E0"/>
<path d="M285.226 56.5946C285.226 25.3383 310.564 0 341.82 0H385.036C400.664 0 413.333 12.6691 413.333 28.2973V70.7027C413.333 86.3309 400.664 99 385.036 99H313.523C297.895 99 285.226 86.3309 285.226 70.7027V56.5946Z" fill="#FFF5E0"/>
</svg>
