<svg width="405" height="96" viewBox="0 0 405 96" fill="none" xmlns="http://www.w3.org/2000/svg">
<path fill-rule="evenodd" clip-rule="evenodd" d="M297.978 14.4788C317.401 16.4741 332.547 20.7993 347.654 25.4905C397.198 40.8904 412.339 59.4112 375.795 73.1353C318.976 94.4051 191.279 100.448 94.507 84.1064C73.0745 80.4958 43.9709 76.4246 23.4222 66.114C4.30674 56.5264 6.13559 47.2657 16.2048 39.4212C26.4636 31.3725 45.294 24.782 60.1548 20.7856C125.123 3.36037 252.558 -6.52418 364.628 14.2892C366.934 14.7029 369.301 14.5425 370.036 13.9415C370.772 13.3405 369.682 12.5326 367.543 12.1333C252.181 -9.28898 120.707 0.694499 53.8393 18.6269C35.3482 23.6137 10.9034 32.4971 3.0456 43.2059C-2.26863 50.53 0.0473642 58.6913 16.608 67.0569C38.4282 78.0339 69.3359 82.5021 92.0867 86.3408C191.991 103.215 324.062 97.0515 382.635 75.0744C421.974 60.3288 405.975 40.4285 352.695 23.8734C336.454 18.7965 319.827 14.1835 298.744 12.0184C296.42 11.7802 294.368 12.1386 294.294 12.8296C294.054 13.5062 295.82 14.255 297.978 14.4788Z" fill="#4285F4"/>
</svg>
