<svg width="38" height="38" viewBox="0 0 38 38" fill="none" xmlns="http://www.w3.org/2000/svg">
<path fill-rule="evenodd" clip-rule="evenodd" d="M15.0521 7.4885C14.9503 6.88457 14.8736 6.2875 14.8241 5.69035C14.7494 4.79464 14.7956 3.89208 14.7691 2.99636C14.7576 2.61636 14.7121 1.62566 14.7304 1.48316C14.8967 0.241375 15.8989 0.0513523 16.1921 0.0174237C16.3339 -0.00293345 17.7901 -0.165718 18.1043 1.44928C18.4897 3.42393 18.6132 5.41211 18.4768 7.35961C18.7951 9.01533 19.3393 10.6642 20.0579 12.1571C22.9174 18.0946 28.3663 18.6714 34.2699 18.6171C35.1778 18.6035 35.9317 19.316 35.9792 20.2185C36.0267 21.1278 35.3509 21.9149 34.447 21.9964C31.1471 22.3153 25.2924 24.9618 23.2682 27.7168C22.8448 28.2935 22.5985 29.6846 22.2727 31.0486C21.8181 32.9418 21.2773 34.8146 20.6713 35.6017C20.5804 35.7239 19.475 36.9725 19.1452 37.1557C18.3526 37.59 17.7182 37.3389 17.3579 37.1082C16.9975 36.8774 16.5897 36.4228 16.4269 35.6696C16.2565 34.8825 16.4004 33.2674 16.3739 32.9213C16.2776 31.666 16.0265 29.2028 15.5142 27.0856C15.238 25.9456 14.9435 24.8939 14.4563 24.3714C12.6527 22.4374 9.76872 22.7225 7.34012 23.0414C7.06122 23.0753 6.78233 23.1161 6.50412 23.15C5.51544 23.4418 4.46566 23.6589 3.3562 23.7878C1.68081 23.9846 1.40533 22.4442 1.3904 22.3424C1.35918 22.1185 1.24314 20.965 2.50596 20.5035C2.64371 20.456 3.66022 20.2321 4.05175 20.1439C4.59732 20.0217 5.14899 19.9268 5.70271 19.8386C11.4224 18.0607 14.5289 13.0664 15.0521 7.4885ZM17.0152 13.6568C19.1744 18.1218 22.4512 20.2796 26.3354 21.2567H26.3347C23.9095 22.5257 21.7034 24.1136 20.5342 25.7082C20.0905 26.3121 19.6833 27.5267 19.3162 28.8907C19.1174 27.6217 18.8487 26.2713 18.4938 25.1178C18.0901 23.8013 17.5465 22.7089 16.9398 22.0575C15.7686 20.8021 14.2988 20.1032 12.7184 19.7571C14.6103 18.0811 16.0448 15.9911 17.0152 13.6568Z" fill="#4285F4"/>
</svg>
