<svg width="60" height="30" viewBox="0 0 60 30" fill="none" xmlns="http://www.w3.org/2000/svg">
<path d="M26.0375 11.4149C26.7987 11.355 27.56 11.2154 28.3213 11.2453C31.1939 11.3351 34.0767 11.4747 36.9493 11.5745C37.0914 11.5845 37.2437 11.4548 37.396 11.3949L37.3858 11.385C39.1216 11.4548 40.8573 11.5845 42.6032 11.5944C46.633 11.6144 50.6526 11.7141 54.6519 12.5221C55.2812 12.6517 56.347 12.6817 56.2658 14.9359C56.1846 17.2799 55.4436 18.6364 54.3473 18.5267C51.7082 18.2574 49.0589 17.649 46.4097 17.9981C42.5423 18.5068 38.6952 18.0978 34.8482 18.1377C31.3868 18.1676 27.9356 17.9681 24.4742 18.018C21.2261 18.0679 17.9678 18.5068 14.7196 18.407C11.918 18.3272 9.12662 17.6789 6.33522 17.4096C5.67544 17.3497 4.97508 17.2101 4.3356 18.0579L4.34576 18.0878C3.60477 17.0405 2.67095 18.9457 1.97057 17.4096C1.7168 17.3597 1.45288 17.2101 1.19912 17.2799C0.0419542 17.639 -0.242251 16.8111 0.194222 14.2477C0.295728 13.6791 0.214449 12.941 0.498664 12.552L0.518985 12.5919L0.508824 12.552C1.33102 10.8264 2.27512 11.6842 3.14806 11.6642C7.43159 11.5845 11.715 11.6543 15.9986 11.6742C18.6275 11.6842 21.2566 11.8438 23.8855 11.5944C24.6062 11.5246 25.3269 11.2054 26.0578 11.4249L26.0375 11.4149Z" fill="#46DC8C"/>
<path d="M58.2354 11.5457C59.0271 12.224 59.6361 12.9421 59.8696 13.8997L59.9712 14.4782C60.0727 15.4059 59.9001 16.3235 59.5448 17.0816C59.1896 17.8496 58.6516 18.5378 57.8801 19.1962C57.1087 19.8645 56.053 20.3931 55.0989 20.9617L53.1906 22.0589C53.0891 22.1187 53.0485 22.2883 52.9775 22.408L52.9978 22.4179C51.729 23.1361 50.4297 23.8044 49.1913 24.5724C46.3289 26.3479 43.4258 28.0635 40.1573 29.1607C39.6498 29.3303 38.8682 29.7791 37.7009 27.8341C36.4828 25.8093 36.2798 24.333 37.1122 23.944C39.1321 22.9965 41.3347 22.3182 43.0197 20.8519C44.2479 19.7747 45.598 18.887 46.9886 18.0591L49.0695 16.8322L50.1048 16.2138L50.6225 15.8946L50.7544 15.8148C50.795 15.7949 50.7748 15.7949 50.7951 15.7849L50.8357 15.745C50.9575 15.6353 51.0793 15.5455 51.2113 15.4657C51.3331 15.3859 51.4752 15.2562 51.4346 15.0867C51.3635 14.8772 51.0996 14.8174 50.9067 14.7475C50.8458 14.7276 50.785 14.7176 50.7241 14.7176C50.6936 14.7176 50.6732 14.7176 50.6225 14.7076L50.1556 14.4982L48.2676 13.6803C47.0089 13.1416 45.7604 12.5831 44.583 11.9048C42.5427 10.7378 40.7866 9.082 38.8479 7.75539C38.3911 7.44618 37.9343 7.0472 37.0512 7.53595L37.041 7.56588C37.0004 6.35896 35.3866 7.66562 35.6099 6.03977C35.4475 5.90013 35.3257 5.66074 35.1024 5.63082C34.067 5.49117 34.2599 4.66329 35.8332 2.57861C36.1783 2.11978 36.4829 1.43154 36.8787 1.2121C38.3303 0.01516 38.6144 1.13231 39.2641 1.46147C42.4818 3.05739 45.6183 4.79296 48.7954 6.47865L51.6883 8.0646C52.1756 8.32394 52.6627 8.58328 53.1601 8.81269L55.3527 9.86001C56.3677 10.3188 57.7583 10.7178 58.2354 11.5357V11.5457Z" fill="#46DC8C"/>
</svg>
