<svg xmlns="http://www.w3.org/2000/svg" width="33" height="36" viewBox="0 0 33 36" fill="none">
<path fill-rule="evenodd" clip-rule="evenodd" d="M11.0413 33.595C7.89032 32.7146 4.59131 32.2704 1.39105 31.8635C0.701762 31.7782 0.0618066 32.2542 0.0125719 32.9249C-0.0858976 33.596 0.406738 34.2098 1.04679 34.2951C4.14858 34.6868 7.34855 35.1059 10.3519 35.9536C10.9919 36.1374 11.6815 35.7589 11.8784 35.1079C12.0754 34.4574 11.6814 33.7794 11.0413 33.595Z" fill="#FABD05"/>
<path fill-rule="evenodd" clip-rule="evenodd" d="M20.5923 21.1121C15.5211 15.9592 9.80986 11.4695 4.83715 6.17839C4.39404 5.68423 3.60628 5.65775 3.11393 6.11907C2.62159 6.58088 2.57254 7.35741 3.06489 7.85157C8.0376 13.1579 13.7488 17.6623 18.82 22.8304C19.3124 23.3128 20.0999 23.3196 20.5923 22.8451C21.0354 22.371 21.0846 21.5945 20.5923 21.1121Z" fill="#FABD05"/>
<path fill-rule="evenodd" clip-rule="evenodd" d="M30.0954 1.29215C30.2431 4.24144 30.3905 7.19072 30.5382 10.1405C30.5382 10.816 31.1293 11.3377 31.8186 11.3048C32.5079 11.2715 33 10.6964 33 10.0204C32.8523 7.0662 32.7048 4.1125 32.5571 1.15881C32.5079 0.483257 31.917 -0.0349262 31.2277 0.00184175C30.5877 0.0386097 30.0462 0.617095 30.0954 1.29215Z" fill="#FABD05"/>
</svg>