<svg xmlns="http://www.w3.org/2000/svg" width="330" height="143" viewBox="0 0 330 143" fill="none">
<path fill-rule="evenodd" clip-rule="evenodd" d="M245.734 19.2302C261.374 21.4406 273.353 27.2212 285.271 33.5397C324.356 54.2827 335.216 80.8607 304.417 102.308C256.537 135.554 152.207 149.093 74.7854 128.704C57.6378 124.2 34.2875 119.304 18.3848 104.953C3.591 91.608 5.80544 77.9737 14.6105 66.1118C23.5859 53.9438 39.418 43.5976 51.818 37.1973C106.024 9.28472 210.443 -9.87299 299.955 16.5065C301.798 17.028 303.736 16.7062 304.381 15.7987C305.027 14.8912 304.204 13.7475 302.495 13.241C210.354 -13.9097 102.643 5.54116 46.8511 34.2665C31.4208 42.2509 10.8425 56.1624 3.61109 72.1394C-1.28596 83.0644 -0.0430975 94.936 12.7689 106.584C29.6533 121.865 54.4397 127.277 72.6415 132.066C152.568 153.121 260.466 139.244 309.828 104.898C342.98 81.8514 331.53 53.284 289.497 30.9856C276.687 24.1438 263.527 17.9958 246.55 15.5976C244.678 15.3338 242.982 15.9342 242.867 16.9493C242.619 17.9492 243.996 18.9816 245.734 19.2302Z" fill="#46DC8C"/>
</svg>
