<svg xmlns="http://www.w3.org/2000/svg" width="27" height="57" viewBox="0 0 27 57" fill="none">
<path fill-rule="evenodd" clip-rule="evenodd" d="M7.83685 33.4977C7.84668 33.3928 7.855 33.3039 7.86201 33.2343C7.86778 33.1677 7.84143 33.1016 7.81691 33.0401C7.79292 32.98 7.77068 32.9242 7.78199 32.8766C7.90766 32.281 8.00889 31.6704 8.1116 31.0509C8.2051 30.4871 8.29981 29.9158 8.41529 29.3417C8.62563 28.1348 8.92971 26.9216 9.30238 25.7566C9.40755 25.4491 9.48071 25.127 9.53787 24.8007C9.5525 24.7172 9.56623 24.6332 9.57998 24.5492C9.61955 24.3073 9.6593 24.0643 9.72115 23.827C10.0086 23.4845 10.0503 23.0658 10.0923 22.6451C10.1146 22.4213 10.1369 22.197 10.1963 21.9832C10.7455 19.8902 11.8156 17.9466 12.889 15.9971C12.9731 15.8444 13.0572 15.6916 13.1411 15.5387C14.5921 12.9063 16.2526 10.334 17.9332 7.73065C18.4452 6.93743 18.9592 6.14131 19.4696 5.33973C19.5814 5.16399 19.7391 5.01602 19.8964 4.86841C20.3662 4.42748 20.8326 3.98988 20.0617 2.82553C20.048 2.8067 20.0297 2.77115 20.0206 2.75232C19.8731 2.45711 19.4787 2.20252 19.0854 1.94856C18.8934 1.82464 18.7017 1.70088 18.5391 1.57262C16.2779 -0.207401 15.3268 -0.437485 15.0502 0.685745C14.9954 0.902924 14.7911 1.04103 14.5893 1.17755C14.5637 1.19487 14.5381 1.21216 14.5129 1.22958C14.0471 1.5487 13.5353 2.20642 13.1741 2.67059C13.1329 2.72363 13.0935 2.77415 13.0565 2.82135C12.8346 3.10042 12.715 3.46069 12.5978 3.81361C12.4831 4.15902 12.3707 4.49739 12.1671 4.74569C11.6123 5.41889 11.0227 6.07845 10.4298 6.74165C9.15101 8.17203 7.85708 9.61936 6.86518 11.2571C6.01924 12.6376 5.35621 14.1269 4.75263 15.6329C4.37861 16.5735 4.0382 17.5272 3.69784 18.4807C3.49102 19.06 3.28422 19.6394 3.06991 20.2157C3.02718 20.3356 2.98441 20.4554 2.94165 20.5753C2.40098 22.0903 1.86117 23.6029 1.40776 25.173C1.32342 25.455 1.25142 25.7398 1.17934 26.0249C1.14396 26.1649 1.10856 26.3049 1.07168 26.4447L0.909348 27.0827L0.776742 27.7269C0.756073 27.8317 0.734857 27.9365 0.713629 28.0413C0.647979 28.3655 0.58221 28.6903 0.532107 29.0175C0.470377 29.4526 0.413219 29.8855 0.358348 30.3206C0.15258 32.2617 -0.037183 34.2111 0.0062568 36.1815C0.0542692 38.1477 0.372066 40.1369 1.12426 42.0173C1.25687 42.3394 1.37118 42.6615 1.47407 42.9857C1.5015 43.0668 1.52937 43.1477 1.55724 43.2286C1.64083 43.4714 1.72442 43.7142 1.79643 43.9604C1.98391 44.6193 2.17139 45.2803 2.35887 45.9413L2.49147 46.4433C2.51813 46.5472 2.55169 46.6489 2.58526 46.7506C2.60638 46.8145 2.62751 46.8785 2.64694 46.9432L2.96245 47.9472C3.03804 48.2139 3.14195 48.4715 3.24632 48.7303C3.27455 48.8003 3.30281 48.8704 3.33055 48.9407C3.46315 49.2712 3.60033 49.5996 3.74437 49.9259C4.00729 50.4551 4.60173 50.7061 5.39051 50.6475C6.18386 50.5911 7.18069 50.2229 8.32155 49.5703C10.3699 48.3844 10.101 47.6577 9.91991 47.1682C9.90777 47.1354 9.89602 47.1036 9.88539 47.0729C9.4167 45.4664 8.9823 43.9228 8.60506 42.3498C8.23467 40.779 7.90773 39.1831 7.74998 37.5369C7.68825 36.8257 7.65624 35.9117 7.71111 35.0896C7.72026 34.8847 7.7294 34.688 7.73855 34.4998C7.74911 34.3769 7.76166 34.2577 7.77357 34.1446C7.77972 34.0863 7.78569 34.0296 7.79113 33.9748C7.80912 33.7937 7.82423 33.6325 7.83685 33.4977ZM20.349 44.6729C20.3485 44.5351 20.3481 44.4233 20.3431 44.3477C20.3419 44.3036 20.308 44.2622 20.2767 44.2239C20.2471 44.1878 20.2197 44.1544 20.2242 44.1239C20.2972 43.4795 20.3155 42.8103 20.334 42.1332C20.3589 41.2213 20.3842 40.2949 20.5443 39.3946C20.597 39.1392 20.576 38.8716 20.5549 38.6024C20.5423 38.4408 20.5296 38.2787 20.5328 38.1183C20.7358 37.8881 20.6805 37.6106 20.6248 37.331C20.5955 37.1841 20.5661 37.0366 20.574 36.8951C20.6244 35.4514 21.2168 34.1154 21.7974 32.806C21.8225 32.7494 21.8476 32.6929 21.8726 32.6364C22.874 30.4046 24.2732 28.3547 25.8668 26.443C25.9494 26.3453 26.0724 26.2824 26.1947 26.2199C26.3159 26.158 26.4364 26.0964 26.5161 26.0016C26.6876 25.8196 26.6944 25.5017 26.2577 24.7424C26.2463 24.7236 26.2303 24.6901 26.2234 24.6734C26.0994 24.4002 25.7744 24.0764 25.4496 23.7528C25.2895 23.5932 25.1293 23.4337 24.9934 23.2803C24.0629 22.2178 23.409 21.5589 22.9357 21.2828C22.4648 21.0067 22.1721 21.1113 22.0098 21.5442C21.9526 21.7013 21.7776 21.7623 21.603 21.8231C21.5683 21.8352 21.5337 21.8473 21.4999 21.8601C21.0244 22.0337 20.4688 22.5483 20.151 22.8641C19.9521 23.0523 19.8447 23.3264 19.7441 23.592L19.7353 23.6175C19.6448 23.8803 19.5579 24.1328 19.3851 24.299C19.1451 24.5285 18.9018 24.7575 18.6575 24.9874C18.1316 25.4823 17.601 25.9816 17.0874 26.5015C16.3557 27.2713 15.6607 28.0891 15.1783 29.0032C14.6021 30.0574 14.2546 31.1994 13.9803 32.3415C13.8135 33.0443 13.687 33.7494 13.5615 34.4497C13.4823 34.8915 13.4034 35.3315 13.315 35.7676C13.2878 35.9134 13.2606 36.0591 13.2334 36.2047C13.0356 37.2622 12.8386 38.3152 12.6999 39.3779C12.5536 40.5869 12.4576 41.8063 12.517 43.0237C12.5303 43.2852 12.5421 43.5469 12.5539 43.8086C12.6032 44.9007 12.6525 45.9932 12.8074 47.0815C12.9972 48.4265 13.3744 49.7631 14.0809 50.9888C14.2043 51.1979 14.3095 51.4092 14.401 51.6246C14.5015 51.838 14.5907 52.0534 14.6685 52.2731C14.8148 52.7144 14.952 53.1599 15.0663 53.6159C15.124 53.8686 15.1901 54.1194 15.2564 54.3715C15.3109 54.5784 15.3656 54.7861 15.4161 54.9964C15.5372 55.4587 15.6904 55.9147 15.8505 56.3686C15.9968 56.7367 16.4929 56.8727 17.2337 56.7576C17.9767 56.6447 18.969 56.2786 20.151 55.6888C22.2676 54.6189 22.159 54.0922 22.0855 53.7359C22.0804 53.7111 22.0755 53.6872 22.0715 53.664C21.9069 52.5032 21.66 51.4322 21.3856 50.3696C21.3023 50.0454 21.2157 49.722 21.1291 49.3983C20.9329 48.6654 20.7364 47.9312 20.5763 47.184C20.53 47.0049 20.5031 46.8017 20.4751 46.5901C20.4672 46.53 20.4591 46.4691 20.4505 46.408C20.4071 46.1319 20.3911 45.8433 20.3774 45.5734C20.3512 45.2308 20.35 44.9126 20.349 44.6729Z" fill="#FABD05"/>
</svg>