<svg width="218" height="42" viewBox="0 0 218 42" fill="none" xmlns="http://www.w3.org/2000/svg">
<path fill-rule="evenodd" clip-rule="evenodd" d="M160.52 6.33448C171.001 7.20742 179.174 9.09968 187.326 11.1521C214.06 17.8895 222.23 25.9924 202.511 31.9967C171.851 41.3022 102.945 43.9459 50.7266 36.7966C39.1615 35.2169 23.457 33.4357 12.3689 28.9249C2.05413 24.7303 3.04099 20.6787 8.47436 17.2468C14.0101 13.7255 24.171 10.8421 32.19 9.09368C67.2468 1.47016 136.011 -2.85433 196.485 6.25152C197.729 6.43253 199.006 6.36236 199.403 6.09941C199.8 5.83647 199.212 5.48299 198.058 5.30831C135.808 -4.06393 64.8644 0.303844 28.7821 8.14927C18.8042 10.331 5.61371 14.2175 1.37362 18.9026C-1.49396 22.1069 -0.244244 25.6774 8.69197 29.3374C20.4662 34.1398 37.1441 36.0947 49.4206 37.7741C103.329 45.1565 174.595 42.46 206.202 32.8451C227.429 26.3938 218.796 17.6875 190.046 10.4446C181.282 8.22348 172.31 6.2053 160.934 5.25807C159.679 5.15384 158.572 5.31064 158.532 5.61296C158.403 5.90894 159.356 6.23658 160.52 6.33448Z" fill="#EA4336"/>
</svg>
