<svg xmlns="http://www.w3.org/2000/svg" width="31" height="31" viewBox="0 0 31 31" fill="none">
<g clip-path="url(#clip0_228_298)">
<path fill-rule="evenodd" clip-rule="evenodd" d="M5.78255 11.9004C6.99676 11.6951 8.2944 11.3664 9.35971 10.7469C10.625 10.0111 11.2843 8.89209 11.8078 7.68405C12.48 6.13198 12.939 4.43325 13.6938 2.89304C13.9735 2.32098 14.3473 2.15208 14.5083 2.07626C14.9151 1.88477 15.2928 1.88108 15.6323 1.96745C16.0348 2.069 16.5676 2.32218 16.8151 3.07065C16.8504 3.17774 16.8923 3.33883 16.9022 3.55112C16.9093 3.70672 16.8483 4.17862 16.8496 4.3779C16.8543 4.86886 16.8445 5.35729 16.8297 5.84752C16.7805 7.47916 16.6752 8.85377 17.149 10.4444C17.7919 12.6038 18.5728 13.9935 19.8276 14.7696C21.0409 15.52 22.6187 15.6979 24.6845 15.6423C24.8823 15.6299 25.077 15.6236 25.2685 15.6243C26.1747 15.6259 26.9131 16.3514 26.9311 17.2577C26.9492 18.1633 26.2399 18.9174 25.3348 18.9559C25.1458 18.9638 24.9599 18.9703 24.7765 18.9737C21.9644 19.1649 18.4248 20.9945 16.2441 22.7588C15.5719 23.3028 14.4365 24.9552 13.3997 25.954C12.6345 26.6909 11.8441 27.126 11.2283 27.2204C10.8156 27.2842 10.4909 27.2059 10.2316 27.0911C9.85487 26.9243 9.56564 26.6532 9.3748 26.2695C9.27106 26.0596 9.18827 25.7884 9.18399 25.4599C9.18213 25.3019 9.2475 24.9127 9.27923 24.7369C9.21251 24.1219 9.10528 23.5139 9.05786 22.897C8.94485 21.4249 8.39262 20.408 7.75769 19.0813C7.16391 17.8398 6.43937 16.9976 5.29555 16.2256C5.14101 16.1577 3.8942 15.6084 3.46634 15.344C2.8415 14.9567 2.60054 14.4504 2.52713 14.1876C2.4021 13.7418 2.44519 13.3791 2.53746 13.0867C2.67392 12.6552 2.93898 12.3121 3.34478 12.0689C3.59625 11.9177 3.95447 11.7907 4.40627 11.7778C4.75547 11.767 5.65612 11.8841 5.78255 11.9004ZM13.8329 10.9555C13.8696 11.1007 13.91 11.2473 13.9542 11.3959C14.8958 14.5586 16.2361 16.4681 18.0745 17.6045L18.1363 17.6419C16.6399 18.3903 15.2486 19.2765 14.1475 20.1673C13.6942 20.534 13.0363 21.346 12.3342 22.1738C12.1257 20.4953 11.5235 19.2286 10.7651 17.6425C10.1855 16.4319 9.52218 15.4807 8.64793 14.6466C9.48639 14.3878 10.3013 14.0551 11.0354 13.6283C12.2577 12.9174 13.1447 12.0003 13.8329 10.9555Z" fill="#FABD05"/>
</g>
<defs>
<clipPath id="clip0_228_298">
<rect width="26" height="26" fill="white" transform="translate(4.52216) rotate(10.0164)"/>
</clipPath>
</defs>
</svg>